name C:\Users\u0101727\Documents\MyRepositories\upper-imu-dc\Results\main_tracking\Case_28\kinematics.mot
datacolumns 43
datarows 13
range 1.67000000 1.79000000
endheader 
time	clav_prot	clav_elev	scapula_abduction	scapula_elevation	scapula_upward_rot	scapula_winging	plane_elv	shoulder_elv	axial_rot	TrapeziusScapula_M/activation	TrapeziusScapula_S/activation	TrapeziusScapula_I/activation	TrapeziusClavicle_S/activation	SerratusAnterior_I/activation	SerratusAnterior_M/activation	SerratusAnterior_S/activation	Rhomboideus_S/activation	Rhomboideus_I/activation	LevatorScapulae/activation	Coracobrachialis/activation	DeltoideusClavicle_A/activation	DeltoideusScapula_P/activation	DeltoideusScapula_M/activation	LatissimusDorsi_S/activation	LatissimusDorsi_M/activation	LatissimusDorsi_I/activation	PectoralisMajorClavicle_S/activation	PectoralisMajorThorax_I/activation	PectoralisMajorThorax_M/activation	TeresMajor/activation	Infraspinatus_I/activation	Infraspinatus_S/activation	PectoralisMinor/activation	TeresMinor/activation	Subscapularis_S/activation	Subscapularis_M/activation	Subscapularis_I/activation	Supraspinatus_P/activation	Supraspinatus_A/activation	TRIlong/activation	BIC_long/activation	BIC_brevis/activation	
          1.67000000	        -24.30335774	          3.27166754	          2.26851713	         -4.17087565	         41.27858438	         -3.31704857	         68.41613115	         60.73821082	        -22.16904075	          0.01134572	          0.01011767	          0.01010972	          0.01010420	          0.01010428	          0.01010281	          0.01009969	          0.01010512	          0.01010030	          0.01009791	          0.01010164	          0.01010230	          0.01010237	          0.01010238	          0.01010355	          0.01010259	          0.01010176	          0.01010167	          0.01009995	          0.01010071	          0.01010177	          0.01010183	          0.01010436	          0.01009709	          0.01010200	          0.01010245	          0.01010194	          0.01010235	          0.01010230	          0.01010224	          0.01010195	          0.01010237	          0.01010202	
          1.68000000	        -24.35056112	          3.39758733	          2.48904953	         -4.13687435	         41.70256578	         -3.42399783	         68.40653983	         61.12730355	        -22.33378708	          0.01008993	          0.01011508	          0.01010701	          0.01010332	          0.01010455	          0.01010308	          0.01009999	          0.01009422	          0.01009398	          0.01009768	          0.01010165	          0.01010261	          0.01010240	          0.01010234	          0.01010310	          0.01010241	          0.01010187	          0.01010212	          0.01010048	          0.01010121	          0.01010168	          0.01010155	          0.01009595	          0.01009774	          0.01010257	          0.01010244	          0.01010185	          0.01010205	          0.01010197	          0.01010197	          0.01010198	          0.01010206	          0.01010201	
          1.69000000	        -24.29571497	          3.54084631	          2.79913593	         -4.07038296	         42.01882433	         -3.51249666	         68.41124500	         61.52189245	        -22.52560137	          0.01030413	          0.01010296	          0.01010699	          0.01010129	          0.01010518	          0.01010407	          0.01010254	          0.01009685	          0.01009670	          0.01009699	          0.01010166	          0.01010311	          0.01010241	          0.01010231	          0.01010337	          0.01010283	          0.01010233	          0.01010323	          0.01010246	          0.01010264	          0.01010158	          0.01010221	          0.01009752	          0.01009973	          0.01010296	          0.01010235	          0.01010180	          0.01010187	          0.01010181	          0.01010187	          0.01010199	          0.01010187	          0.01010203	
          1.70000000	        -24.11998320	          3.71139698	          3.20648741	         -3.96042557	         42.19927102	         -3.58054797	         68.43409782	         61.92137394	        -22.72035895	          0.01369957	          0.01064880	          0.01009899	          0.01009844	          0.01010399	          0.01010438	          0.01010873	          0.01010712	          0.01011236	          0.01010153	          0.01010167	          0.01010201	          0.01010238	          0.01010231	          0.01010395	          0.01010418	          0.01010391	          0.01010505	          0.01010688	          0.01010530	          0.01010151	          0.01007995	          0.01067629	          0.01010476	          0.01010303	          0.01010067	          0.01010177	          0.01010189	          0.01010188	          0.01010198	          0.01010197	          0.01010186	          0.01010206	
          1.71000000	        -23.85512656	          3.91563690	          3.66707133	         -3.80693535	         42.26111280	         -3.63485675	         68.47702990	         62.32433643	        -22.89505457	          0.02196848	          0.01559104	          0.01007002	          0.01009632	          0.01008904	          0.01009409	          0.01010165	          0.01043984	          0.01038471	          0.01011334	          0.01010167	          0.01010388	          0.01010235	          0.01010234	          0.01009253	          0.01009756	          0.01010233	          0.01009903	          0.01010893	          0.01010790	          0.01010147	          0.01118356	          0.01748160	          0.01018268	          0.01010285	          0.01010582	          0.01010209	          0.01010202	          0.01010208	          0.01010219	          0.01010193	          0.01010198	          0.01010209	
          1.72000000	        -23.90484096	          4.16035322	          3.54174115	         -3.64112758	         42.30244444	         -3.70318615	         68.53969130	         62.72908235	        -23.03607134	          0.02343171	          0.01572813	          0.01009316	          0.01010410	          0.01009037	          0.01009067	          0.01009539	          0.01029623	          0.01031313	          0.01011693	          0.01010167	          0.01009834	          0.01010231	          0.01010236	          0.01010358	          0.01010440	          0.01010381	          0.01009726	          0.01009970	          0.01009927	          0.01010146	          0.01022729	          0.01996831	          0.01011627	          0.01010264	          0.01009829	          0.01010179	          0.01010215	          0.01010225	          0.01010234	          0.01010189	          0.01010210	          0.01010212	
          1.73000000	        -23.89320104	          4.37559498	          3.59164287	         -3.50133938	         42.41597362	         -3.77332158	         68.61989948	         63.13385044	        -23.13977236	          0.02181328	          0.01454094	          0.01010120	          0.01010052	          0.01011182	          0.01010524	          0.01009286	          0.01023387	          0.01022560	          0.01009406	          0.01010167	          0.01010638	          0.01010229	          0.01010237	          0.01009921	          0.01009908	          0.01009965	          0.01010221	          0.01009858	          0.01010097	          0.01010143	          0.01138768	          0.02298069	          0.01012764	          0.01010259	          0.01010462	          0.01010214	          0.01010216	          0.01010226	          0.01010234	          0.01010186	          0.01010210	          0.01010215	
          1.74000000	        -23.83752469	          4.57889686	          3.75842919	         -3.37262237	         42.57307754	         -3.84542236	         68.71466484	         63.53677940	        -23.20610959	          0.01977849	          0.01281006	          0.01011108	          0.01010036	          0.01011340	          0.01010899	          0.01010999	          0.01009767	          0.01011174	          0.01009327	          0.01010167	          0.01010223	          0.01010229	          0.01010233	          0.01010641	          0.01010476	          0.01010317	          0.01010655	          0.01010483	          0.01010460	          0.01010138	          0.01082415	          0.02525939	          0.01009831	          0.01010281	          0.01009814	          0.01010199	          0.01010202	          0.01010209	          0.01010219	          0.01010185	          0.01010192	          0.01010218	
          1.75000000	        -23.75923004	          4.81558416	          3.89216108	         -3.20959545	         42.65219998	         -3.91025245	         68.82118100	         63.93575434	        -23.22999330	          0.02563035	          0.01675714	          0.01007337	          0.01009175	          0.01008839	          0.01009263	          0.01009801	          0.01051944	          0.01085603	          0.01011396	          0.01010168	          0.01010420	          0.01010230	          0.01010229	          0.01009615	          0.01010077	          0.01010428	          0.01009798	          0.01010710	          0.01010588	          0.01010130	          0.01996753	          0.04274981	          0.01018644	          0.01010317	          0.01010584	          0.01010205	          0.01010183	          0.01010186	          0.01010201	          0.01010186	          0.01010167	          0.01010223	
          1.76000000	        -23.73106512	          5.08641423	          3.91686555	         -3.02409703	         42.72003680	         -3.98035320	         68.93723828	         64.32833418	        -23.19662356	          0.02211076	          0.01476170	          0.01008593	          0.01010158	          0.01008477	          0.01008660	          0.01009101	          0.01032721	          0.01059068	          0.01012131	          0.01010168	          0.01009826	          0.01010229	          0.01010224	          0.01010359	          0.01010527	          0.01010437	          0.01009163	          0.01009704	          0.01009655	          0.01010123	          0.01984650	          0.04062379	          0.01013932	          0.01010341	          0.01009900	          0.01010174	          0.01010176	          0.01010174	          0.01010194	          0.01010187	          0.01010148	          0.01010228	
          1.77000000	        -23.60963028	          5.33408902	          4.20812861	         -2.86313595	         42.90259620	         -4.06030873	         69.06061249	         64.71189243	        -23.08478076	          0.01895995	          0.01269640	          0.01007358	          0.01009604	          0.01007997	          0.01008667	          0.01011014	          0.01018618	          0.01023188	          0.01013390	          0.01010167	          0.01009718	          0.01010227	          0.01010221	          0.01010142	          0.01010585	          0.01010785	          0.01009773	          0.01010992	          0.01010610	          0.01010119	          0.01706478	          0.03482650	          0.01014623	          0.01010338	          0.01009311	          0.01010200	          0.01010186	          0.01010182	          0.01010205	          0.01010189	          0.01010149	          0.01010235	
          1.78000000	        -23.89011600	          5.51050645	          4.06777212	         -2.81402975	         43.40754892	         -4.18886726	         69.18819910	         65.08413175	        -22.87612193	          0.01626050	          0.01102377	          0.01008690	          0.01009864	          0.01012033	          0.01011467	          0.01009762	          0.01018714	          0.01022861	          0.01008853	          0.01010166	          0.01010881	          0.01010223	          0.01010221	          0.01009809	          0.01009764	          0.01009832	          0.01010235	          0.01009712	          0.01010127	          0.01010123	          0.01475415	          0.02985425	          0.01014566	          0.01010304	          0.01010312	          0.01010222	          0.01010212	          0.01010208	          0.01010229	          0.01010189	          0.01010169	          0.01010240	
          1.79000000	        -24.78506936	          5.65975989	          3.15325640	         -2.86270672	         44.29105399	         -4.40539062	         69.31539785	         65.44370607	        -22.56440577	          0.01394720	          0.01013573	          0.01012901	          0.01010900	          0.01011641	          0.01010766	          0.01009262	          0.01010673	          0.01010713	          0.01008882	          0.01010165	          0.01010159	          0.01010219	          0.01010221	          0.01010623	          0.01010135	          0.01009796	          0.01010008	          0.01009087	          0.01009428	          0.01010133	          0.01265339	          0.02559124	          0.01008695	          0.01010253	          0.01009946	          0.01010225	          0.01010243	          0.01010238	          0.01010253	          0.01010189	          0.01010199	          0.01010245	
